<?xml version="1.0" standalone="no"?><!DOCTYPE svg PUBLIC "-//W3C//DTD SVG 1.1//EN" "http://www.w3.org/Graphics/SVG/1.1/DTD/svg11.dtd"><svg t="1755762539895" class="icon" viewBox="0 0 1024 1024" version="1.1" xmlns="http://www.w3.org/2000/svg" p-id="6685" xmlns:xlink="http://www.w3.org/1999/xlink" width="200" height="200"><path d="M511.79999999 512m1e-8 80a80 80 0 1 0 0-160 80 80 0 1 0 0 160Z" fill="#1677ff" p-id="6686"></path><path d="M511.8 63.5c-62.8 0-117.2 73.8-150.1 188.5-115.80000001-28.9-206.9-18.7-238.3 35.7-31.39999999 54.5 5.3 138.49999999 88.2 224.3-82.9 85.80000001-119.6 169.80000001-88.2 224.3 31.4 54.4 122.6 64.6 238.3 35.7C394.6 886.7 449 960.5 511.8 960.5S629 886.7 661.9 772c115.7 28.9 206.9 18.7 238.3-35.7 7.8-13.4 11.6-28.6 11.6-45.2 0-39.7-21.8-87.8-64.2-140-10.60000001-13-22.6-26.09999999-35.2-39.1 12.6-13 24.6-26.1 35.2-39.1 42.4-52.2 64.2-100.2 64.2-140 0-16.6-3.8-31.8-11.6-45.2-31.4-54.4-122.5-64.6-238.3-35.7-32.9-114.7-87.3-188.5-150.1-188.5zM157.2 307.2c20.4-35.3 94.3-42.7 194.8-17.60000001-8.4 36.7-14.7 76.7-18.6 119.30000001-34.9 24.7-66.40000001 50.2-94.00000001 75.8-57.3-59.2-88.4-114.2-88.39999999-152-0.1-9.6 2-18.2 6.2-25.5zM584 387c24 13.8 47 28.4 69 43.3 2 26.1 3.1 53.3 3.1 81.7 0 28.3-1.1 55.50000001-3.1 81.6-22 15-45.1 29.5-68.99999999 43.3-24.49999999 14.1-48.6 26.7-72.20000001 38.1-23.6-11.4-47.7-24-72.2-38.1-24.49999999-14.1-47.4-28.7-69.1-43.4-2-26.1-3.1-53.3-3.1-81.6 0-28.3 1.1-55.50000001 3.1-81.6 21.6-14.7 44.6-29.3 69-43.4 24.49999999-14.1 48.6-26.7 72.20000001-38.1 23.7 11.5 47.8 24.1 72.29999999 38.2z m-26.4-58.8c26.6-11.2 52.1-20.40000001 76.5-28 5.6 24.9 10.4 51.7 14 80.29999999-14.5-9.3-29.29999999-18.4-44.6-27.29999999-15.4-8.79999999-30.7-17.1-45.9-25zM756.5 512c-19.2 17.7-40.10000001 35.1-62.6 52.2 0.8-17.1 1.3-34.50000001 1.3-52.2 0-17.7-0.5-35.1-1.3-52.2 22.5 17.1 43.4 34.5 62.6 52.2zM648.1 643.50000001c-3.6 28.6-8.4 55.3-14 80.29999999-24.4-7.6-49.90000001-16.8-76.5-28 15.2-7.90000001 30.5-16.1 45.9-25 15.2-8.9 30-18.00000001 44.6-27.29999999zM466 695.8c-26.6 11.2-52.1 20.40000001-76.5 28-5.6-24.9-10.4-51.59999999-14-80.2 14.4 9.2 29.2 18.39999999 44.6 27.2 15.4 8.79999999 30.7 17.1 45.9 25zM267.1 512c18.7-17.3 39.80000001-34.8 62.7-52.1-0.8 17.1-1.3 34.4-1.3 52.1 0 17.7 0.5 35 1.3 52.1-22.89999999-17.3-44-34.8-62.7-52.1z m152.99999999-158.7c-15.3 8.9-30.1 18.00000001-44.59999999 27.2 3.6-28.6 8.4-55.3 14-80.2 24.4 7.6 49.90000001 16.8 76.5 28-15.2 7.8-30.5 16.1-45.90000001 25zM157.2 716.8c-4.20000001-7.2-6.2-15.8-6.2-25.6 0-37.8 31.1-92.7 88.39999999-151.9 27.6 25.6 59.2 51.09999999 94.00000001 75.8 3.9 42.5 10.2 82.6 18.6 119.30000001-100.6 25.1-174.5 17.6-194.8-17.60000001zM511.8 921.5c-40.8 0-84.2-60.3-112.6-160 36-11.1 73.8-25.6 112.6-43.5 38.8 17.80000001 76.6 32.4 112.6 43.5-28.4 99.7-71.9 160-112.6 160z m305.5-345.8c48.5 59.7 66.4 111.1 49.2 141.1-20.4 35.3-94.3 42.7-194.8 17.6 8.4-36.7 14.7-76.7 18.60000001-119.3 34.5-24.4 66.10000001-49.9 94.19999999-75.8 11.7 12.1 22.89999999 24.2 32.8 36.4z m49.2-268.5c17.3 29.9-0.6 81.4-49.2 141.1-9.9 12.1-21.1 24.3-32.8 36.5-28.1-26-59.7-51.4-94.2-75.8-3.9-42.5-10.2-82.6-18.7-119.3 100.6-25.2 174.5-17.7 194.9 17.5z m-242.1-44.8c-36 11.1-73.8 25.6-112.6 43.5-38.8-17.80000001-76.6-32.4-112.6-43.5 28.5-99.7 71.9-160 112.6-160 40.7 0.1 84.2 60.4 112.6 160z" fill="#1677ff" p-id="6687"></path></svg>
